<?xml version="1.0" encoding="iso-8859-1"?>
<!-- Generator: Adobe Illustrator 19.0.0, SVG Export Plug-In . SVG Version: 6.00 Build 0)  -->
<svg version="1.1" id="Layer_1" xmlns="http://www.w3.org/2000/svg" xmlns:xlink="http://www.w3.org/1999/xlink" x="0px" y="0px"
	 viewBox="0 0 512.001 512.001" style="enable-background:new 0 0 512.001 512.001;" xml:space="preserve">
<polygon style="fill:#181818;" points="317.249,409.275 256.873,409.26 244.984,500.417 329.137,500.417 "/>
<circle style="fill:#269AF2;" cx="287.058" cy="202.935" r="156.704"/>
<path style="fill:#BEC8D6;" d="M287.345,421.642c-85.867,0.007-167.488-50.872-202.34-135.01
	c-22.355-53.971-22.355-113.417,0-167.387c22.356-53.971,64.39-96.005,118.361-118.361c5.912-2.448,12.686,0.358,15.135,6.269
	c2.448,5.911-0.359,12.686-6.269,15.135c-48.253,19.988-85.836,57.568-105.823,105.823s-19.986,101.402,0.001,149.656
	c41.259,99.611,155.87,147.081,255.478,105.821c5.912-2.449,12.686,0.359,15.135,6.269c2.448,5.91-0.359,12.686-6.269,15.134
	C343.479,416.291,315.181,421.641,287.345,421.642z"/>
<path style="fill:#4C5870;" d="M382.527,512.001H191.594c-6.396,0-11.584-5.186-11.584-11.584s5.187-11.584,11.584-11.584h190.932
	c6.397,0,11.584,5.186,11.584,11.584S388.924,512.001,382.527,512.001z"/>
<g>
</g>
<g>
</g>
<g>
</g>
<g>
</g>
<g>
</g>
<g>
</g>
<g>
</g>
<g>
</g>
<g>
</g>
<g>
</g>
<g>
</g>
<g>
</g>
<g>
</g>
<g>
</g>
<g>
</g>
</svg>
